<svg version="1.2" baseProfile="tiny-ps" xmlns="http://www.w3.org/2000/svg" viewBox="0 0 674 726" width="674" height="726">
	<title>image</title>
	<style>
		tspan { white-space:pre }
		.shp0 { opacity: 0.851;fill: #f2a154 } 
	</style>
	<g id="Layer" style="opacity: 0.949">
		<path id="Layer" class="shp0" d="M163.66 669.92C113.93 629.4 85.62 562.95 57.32 497.71C29.42 432.07 0.71 368.05 3.13 303.62C5.56 239.6 39.12 175.58 86.43 127.36C133.74 78.74 195.2 45.91 260.3 26.46C325.81 7.01 395.36 0.94 458.44 17.96C521.92 35.38 579.74 75.9 612.09 129.39C644.44 182.87 651.72 249.32 660.21 314.97C669.1 381.01 679.62 445.85 659.4 500.14C639.59 554.44 589.04 598.2 533.65 635.89C478.65 673.97 418 705.98 352.09 715.3C285.78 724.22 213.8 710.04 163.66 669.92Z" />
	</g>
</svg>