<svg version="1.2" baseProfile="tiny-ps" xmlns="http://www.w3.org/2000/svg" viewBox="0 0 177 122" width="177" height="122">
	<title>image</title>
	<style>
		tspan { white-space:pre }
		.shp0 { fill: #f8f8f8 } 
	</style>
	<path id="Layer" class="shp0" d="M109.59 57.85C110.21 58.14 110.78 58.55 111.24 59.06C111.71 59.56 112.07 60.16 112.3 60.8C112.54 61.45 112.65 62.14 112.62 62.82C112.62 63.93 112.28 65 111.66 65.91C111.04 66.82 110.16 67.52 109.13 67.92C108.1 68.32 106.98 68.41 105.9 68.16C104.83 67.91 103.86 67.34 103.11 66.53C102.36 65.72 101.88 64.7 101.72 63.61C101.56 62.52 101.74 61.4 102.23 60.41C102.71 59.42 103.48 58.6 104.44 58.06C105.4 57.52 106.5 57.27 107.6 57.37C108.29 57.4 108.97 57.56 109.59 57.85ZM127.53 57.85C128.16 58.14 128.72 58.55 129.18 59.06C129.65 59.56 130.01 60.16 130.25 60.8C130.48 61.45 130.59 62.14 130.56 62.82C130.56 63.93 130.23 65 129.6 65.91C128.98 66.82 128.1 67.52 127.07 67.92C126.04 68.32 124.92 68.41 123.85 68.16C122.77 67.91 121.8 67.34 121.05 66.53C120.31 65.72 119.82 64.7 119.67 63.61C119.51 62.52 119.68 61.4 120.17 60.41C120.65 59.42 121.43 58.6 122.39 58.06C123.34 57.52 124.45 57.27 125.55 57.37C126.23 57.4 126.91 57.56 127.53 57.85Z" />
	<path id="Layer" fill-rule="evenodd" class="shp0" d="M153.3 16.9C154.52 17.41 155.63 18.16 156.57 19.1C157.51 20.04 158.25 21.16 158.75 22.38C159.26 23.61 159.51 24.92 159.51 26.25L159.51 114.44L148.94 105.1L143 99.59L136.7 93.74L139.31 102.84L83.57 102.84C82.24 102.83 80.93 102.57 79.7 102.06C78.48 101.55 77.36 100.8 76.43 99.86C75.49 98.92 74.75 97.81 74.25 96.58C73.74 95.35 73.48 94.04 73.49 92.71L73.49 26.25C73.48 24.92 73.74 23.61 74.25 22.38C74.75 21.16 75.49 20.04 76.43 19.1C77.36 18.16 78.48 17.41 79.7 16.9C80.93 16.39 82.24 16.13 83.57 16.13L149.44 16.13C150.76 16.13 152.07 16.39 153.3 16.9ZM138.91 78.45C141.53 77.15 143.79 75.23 145.5 72.85C145.34 62.89 142.92 53.09 138.42 44.19C134.47 41.08 129.64 39.28 124.61 39.03L123.92 39.82C128.4 41.01 132.57 43.14 136.16 46.06C131.59 43.54 126.56 41.94 121.37 41.34C118.06 40.98 114.73 41.01 111.44 41.44C111.16 41.45 110.88 41.48 110.6 41.54C106.74 41.98 102.98 43.02 99.44 44.64C97.62 45.47 96.54 46.06 96.54 46.06C100.33 42.99 104.74 40.79 109.47 39.62L108.98 39.03C103.95 39.28 99.13 41.08 95.17 44.19C90.67 53.09 88.25 62.89 88.09 72.85C89.78 75.23 92.04 77.16 94.65 78.46C97.27 79.76 100.16 80.4 103.08 80.32C103.08 80.32 104.9 78.11 106.37 76.24C102.92 75.37 99.88 73.32 97.77 70.44C98.22 70.74 98.68 71.02 99.15 71.28C99.2 71.34 99.27 71.39 99.34 71.43C99.49 71.52 99.64 71.57 99.79 71.67C100.94 72.31 102.14 72.87 103.38 73.34C105.72 74.27 108.13 74.97 110.6 75.46C114.81 76.26 119.12 76.28 123.33 75.51C125.78 75.08 128.17 74.37 130.46 73.39C132.45 72.64 134.34 71.67 136.11 70.49C133.93 73.43 130.78 75.5 127.22 76.34C128.69 78.21 130.46 80.32 130.46 80.32C133.39 80.4 136.29 79.75 138.91 78.45Z" />
	<path id="Layer" fill-rule="evenodd" class="shp0" d="M18.85 58.78C5.34 50.13 0.58 39.3 0.55 28.76C0.51 17.9 5.5 7.82 9.79 1.35C10.17 0.78 10.74 0.36 11.4 0.19C12.07 0.01 12.77 0.08 13.39 0.38C14 0.69 14.48 1.21 14.74 1.85C15 2.48 15.01 3.19 14.78 3.84L14.46 4.74C13.2 8.25 12 11.59 13.52 15.9C15.12 20.44 19.98 26.56 32.92 34.4L38.54 24.66C38.84 24.15 39.28 23.75 39.81 23.51C40.35 23.26 40.95 23.19 41.52 23.3C42.1 23.41 42.62 23.7 43.03 24.13C43.43 24.56 43.69 25.1 43.77 25.68L48.14 57.49C48.22 58.11 48.1 58.74 47.79 59.29C47.47 59.83 46.99 60.25 46.41 60.49L16.67 72.61C16.13 72.83 15.53 72.88 14.96 72.74C14.39 72.61 13.88 72.3 13.49 71.85C13.11 71.41 12.87 70.86 12.81 70.27C12.76 69.69 12.88 69.1 13.18 68.59L18.85 58.78Z" />
</svg>