<svg version="1.2" baseProfile="tiny-ps" xmlns="http://www.w3.org/2000/svg" viewBox="0 0 67 47" width="67" height="47">
	<title>image</title>
	<defs>
		<clipPath clipPathUnits="userSpaceOnUse" id="cp1">
			<path d="M0 0L67 0L67 47L0 47L0 0Z" />
		</clipPath>
	</defs>
	<style>
		tspan { white-space:pre }
		.shp0 { fill: #ff0000 } 
		.shp1 { fill: #ffffff } 
	</style>
	<g id="Clip-Path" clip-path="url(#cp1)">
		<g id="Layer">
			<path id="Layer" class="shp0" d="M65.52 7.33C67.73 16.22 67.22 30.25 65.56 39.48C65.18 40.9 64.43 42.19 63.39 43.23C62.35 44.27 61.05 45.02 59.63 45.4C54.43 46.81 33.51 46.81 33.51 46.81C33.51 46.81 12.58 46.81 7.38 45.4C5.96 45.02 4.67 44.27 3.63 43.23C2.59 42.19 1.84 40.9 1.45 39.48C-0.77 30.63 -0.16 16.59 1.41 7.37C1.79 5.96 2.54 4.67 3.58 3.63C4.63 2.59 5.92 1.84 7.34 1.46C12.54 0.04 33.47 0 33.47 0C33.47 0 54.39 0 59.59 1.41C61.01 1.8 62.31 2.55 63.35 3.58C64.39 4.62 65.14 5.91 65.52 7.33L65.52 7.33Z" />
			<path id="Layer" class="shp1" d="M26.81 13.38L44.16 23.41L26.81 33.44L26.81 13.38Z" />
		</g>
	</g>
</svg>