<svg version="1.2" xmlns="http://www.w3.org/2000/svg" viewBox="0 0 512 512" width="512" height="512">
	<title>logo-discord-svg</title>
	<style>
		.s0 { fill: #f2a154 } 
	</style>
	<path id="Layer" fill-rule="evenodd" class="s0" d="m464 496l-109-100l13 44h-270.4c-27.3 0-49.6-20.7-49.6-48v-326.5c0-6.5 1.3-12.9 3.8-18.9c2.5-6 6.2-11.5 10.8-16.1c4.6-4.6 10.1-8.2 16.1-10.7c6-2.5 12.4-3.8 18.9-3.8l316.5 1c6.5 0 13 1.3 19 3.8c6 2.5 11.5 6.1 16.1 10.7c4.7 4.6 8.3 10.1 10.9 16.1c2.5 6 3.8 12.4 3.9 18.9zm-65.5-202.4c0-77-34.9-139.6-34.9-139.6c-34.6-25.9-67.8-25.1-67.8-25.1l-3.4 3.8c41.2 12.3 66 33.5 60.3 30.5q-8.4-4.6-17.3-8.4q-8.8-3.7-18-6.6q-9.2-2.9-18.6-4.9q-9.4-2-19-3.1q-6-0.6-12.2-1q-6.1-0.3-12.2-0.2q-6.1 0.1-12.3 0.5q-6.1 0.4-12.2 1.2q-0.5 0-1 0.1q-0.5 0-1 0.1q-0.5 0-1.1 0.1q-0.5 0.1-1 0.2c-8.5 1-29.1 3.9-55 15.2c-8.9 3.9-14.3 6.8-14.3 6.8c0 0 19.9-19.1 63.5-31.4l-2.4-2.9c0 0-33-0.8-67.8 25.1c0 0-34.9 62.6-34.9 139.6c0 0 20.3 34.8 73.8 36.5c0 0 9-10.6 16.3-19.8c-30.8-9.2-42.4-28.3-42.4-28.3c0 0 2.4 1.7 6.8 4.1c0.2 0 0.5 0.3 1 0.5c0.7 0.5 1.4 0.7 2.1 1.2q2.2 1.2 4.4 2.3q2.1 1.1 4.3 2.1q2.3 1 4.5 2q2.3 0.9 4.5 1.8q4.3 1.8 8.7 3.3q4.4 1.5 8.9 2.8q4.4 1.3 8.9 2.4q4.6 1.1 9.1 1.9q7.8 1.5 15.6 2.3q7.9 0.7 15.8 0.8q7.9 0 15.7-0.7q7.9-0.7 15.6-2.1q4.6-0.9 9-1.9q4.5-1.1 8.9-2.4q4.4-1.3 8.7-2.8q4.3-1.6 8.6-3.3q3.6-1.4 7.2-3q3.6-1.6 7.1-3.4q3.5-1.8 6.9-3.7q3.3-2 6.6-4.2c0 0-12.1 19.6-43.9 28.5c7.3 8.9 16 19.3 16 19.3c53.6-1.7 73.9-36.4 73.9-36.2z"/>
	<ellipse id="Layer" class="s0" cx="212.1" cy="244.6" rx="24.7" ry="26.6"/>
	<ellipse id="Layer" class="s0" cx="300.4" cy="244.6" rx="24.7" ry="26.6"/>
</svg>